<?xml version="1.0" encoding="UTF-8" standalone="no"?>
<!-- Created with Inkscape (http://www.inkscape.org/) -->

<svg
   xmlns:dc="http://purl.org/dc/elements/1.1/"
   xmlns:cc="http://creativecommons.org/ns#"
   xmlns:rdf="http://www.w3.org/1999/02/22-rdf-syntax-ns#"
   xmlns:svg="http://www.w3.org/2000/svg"
   xmlns="http://www.w3.org/2000/svg"
   xmlns:sodipodi="http://sodipodi.sourceforge.net/DTD/sodipodi-0.dtd"
   xmlns:inkscape="http://www.inkscape.org/namespaces/inkscape"
   width="100"
   height="70"
   id="svg2"
   version="1.1"
   inkscape:version="0.48.4 r9939"
   sodipodi:docname="fmp-logo.svg">
  <defs
     id="defs4" />
  <sodipodi:namedview
     id="base"
     pagecolor="#ffffff"
     bordercolor="#666666"
     borderopacity="1.0"
     inkscape:pageopacity="0.0"
     inkscape:pageshadow="2"
     inkscape:zoom="1.4"
     inkscape:cx="81.883954"
     inkscape:cy="23.848753"
     inkscape:document-units="px"
     inkscape:current-layer="g3929"
     showgrid="false"
     showguides="true"
     inkscape:guide-bbox="true"
     inkscape:window-width="1280"
     inkscape:window-height="664"
     inkscape:window-x="0"
     inkscape:window-y="34"
     inkscape:window-maximized="1" />
  <metadata
     id="metadata7">
    <rdf:RDF>
      <cc:Work
         rdf:about="">
        <dc:format>image/svg+xml</dc:format>
        <dc:type
           rdf:resource="http://purl.org/dc/dcmitype/StillImage" />
        <dc:title />
      </cc:Work>
    </rdf:RDF>
  </metadata>
  <g
     inkscape:label="Layer 1"
     inkscape:groupmode="layer"
     id="layer1"
     transform="translate(0,-982.36218)">
    <g
       id="g3783"
       transform="translate(4.7912946,-3.6028531)">
      <g
         id="g3929"
         transform="translate(-2.0672382,-4.6628534)">
        <g
           id="g2997"
           transform="translate(1.1001567,16.593695)">
          <g
             transform="matrix(1.0951627,0,0,1.1344039,-2.5454656,-134.8456)"
             id="g3961" />
          <g
             id="g3965">
            <g
               id="g3971">
              <g
                 transform="matrix(1.0686228,0,0,1.0686228,-2.3584473,-70.792322)"
                 id="text2985"
                 style="font-size:40px;font-style:normal;font-weight:normal;line-height:125%;letter-spacing:0px;word-spacing:0px;fill:#000000;fill-opacity:1;stroke:none;font-family:Sans" />
            </g>
          </g>
          <g
             id="g3924"
             transform="matrix(1.0002517,0,0,0.93624401,0.67823574,64.023633)">
            <g
               id="text3915"
               style="font-size:40px;font-style:normal;font-variant:normal;font-weight:normal;font-stretch:normal;line-height:125%;letter-spacing:0px;word-spacing:0px;fill:#000000;fill-opacity:1;stroke:none;font-family:FreeSans;-inkscape-font-specification:FreeSans"
               transform="translate(0,3.1e-6)" />
            <path
               id="path3013-3-8-9"
               transform="matrix(0.58573234,0,0,0.60290942,70.012368,996.42676)"
               style="fill:#000000;fill-rule:evenodd;stroke:#000000;stroke-width:1px;stroke-linecap:butt;stroke-linejoin:miter;stroke-opacity:1"
               d="m 3.2142859,68.39286 c 0,3.649025 -3.67766109,6.607143 -8.2142859,6.607143 -4.5366248,0 -8.214286,-2.958118 -8.214286,-6.607143 0,-3.649024 3.6776612,-6.607143 8.214286,-6.607143 4.53662481,0 8.2142859,2.958119 8.2142859,6.607143 z M 34.506106,0.92521875 c -4.3e-5,4.11342055 -1.297562,7.43066845 -3.892563,9.95177725 -2.54955,2.476823 -5.895785,3.715317 -10.038715,3.715317 l -15.6385426,0 0,20.500592 c -0.069178,50.555024 -3.98308722,46.074417 -6.3510237,0 0.57917064,-23.977233 0.2644347,-45.204303 -2.5868966,-58.627712 6.134966,5.108313 11.4836223,11.056918 23.1423609,10.262205 4.91689,5e-5 8.695632,1.238494 11.336236,3.7153174 2.686056,2.4326872 4.029101,5.9268605 4.029144,10.48250335 M 4.9362854,9.1520267 l 13.2483726,0 c 3.050284,0 5.417687,-0.7518542 7.10222,-2.2557286 1.729993,-1.5038743 2.595006,-3.5826277 2.595042,-6.23645918 -3.6e-5,-2.65376512 -0.865049,-4.73256832 -2.595042,-6.23642602 -1.684533,-1.5037748 -4.051936,-2.2556788 -7.10222,-2.2557286 l -13.2483726,0 0,16.9843424 M -16.463116,46.389809 c 0,3.897515 -3.676736,7.057074 -8.212219,7.057074 -4.535483,0 -8.212219,-3.159559 -8.212219,-7.057074 0,-3.897514 3.676736,-7.057073 8.212219,-7.057073 4.535483,0 8.212219,3.159559 8.212219,7.057073 z m -39.573986,0.379666 c 0,3.897515 -3.676736,7.057074 -8.212219,7.057074 -4.535484,0 -8.212219,-3.159559 -8.212219,-7.057074 0,-3.897514 3.676735,-7.057074 8.212219,-7.057074 4.535483,0 8.212219,3.15956 8.212219,7.057074 z m -4.633382,-73.192416 c 8.682157,6.186146 5.474009,1.65648 10.234343,4.901895 l 14.033467,45.933563 15.256267,-45.694516 c 7.776751,1.339436 5.740428,6.939995 6.95412,5.268956 -1.322227,28.287866 -3.351953,50.965063 -1.235381,60.514264 l -5.71515,2.366428 0,-51.3433321 c -6.516719,17.3748651 -16.950586,31.6815321 -20.285377,65.9354851 -2.363277,-8.984476 2.182506,-23.789986 -1.013268,-33.720276 -0.05437,-16.579196 -7.744074,-28.40348015 -11.735224,-42.531056 -0.03447,15.68718454 -7.467737,-40.55206 -2.60566,42.051523 -0.351583,1.576988 -0.515751,6.357173 -0.0077,7.853891 4.51414,13.298569 -1.179478,16.91201 -4.369038,18.257467 -1.940234,-16.214577 -0.07642,-53.48682389 0.325707,-82.667799 m -35.37991,73.893262 c 0,4.421356 -4.026622,8.005572 -8.993712,8.005572 -4.9671,0 -8.99372,-3.584216 -8.99372,-8.005572 0,-4.421355 4.02662,-8.005572 8.99372,-8.005572 4.96709,0 8.993712,3.584217 8.993712,8.005572 z m -6.767252,-64.480722 31.324735,0 c 2.79873,0.225385 2.591437,4.758074 0,6.672755 -3.892522,2.858446 -15.529734,2.34847 -23.949915,0 l 0,17.2706749 c 7.204445,-1.6849144 14.408893,-1.165714 21.613338,0 2.583443,1.7033433 3.680089,2.8376058 -0.751043,5.9550191 -7.605225,2.58525 -13.874396,2.114584 -20.862295,0.717656 l 0,27.986381 c -0.864005,15.794868 -3.422559,10.64366 -7.37482,11.454967 6.324035,-39.895937 3.634849,-66.182793 -15.27121,-82.259076"
               inkscape:connector-curvature="0" />
          </g>
        </g>
      </g>
    </g>
  </g>
</svg>
