<?xml version="1.0" encoding="UTF-8" standalone="no"?>
<!-- Created with Inkscape (http://www.inkscape.org/) -->

<svg
   xmlns:dc="http://purl.org/dc/elements/1.1/"
   xmlns:cc="http://creativecommons.org/ns#"
   xmlns:rdf="http://www.w3.org/1999/02/22-rdf-syntax-ns#"
   xmlns:svg="http://www.w3.org/2000/svg"
   xmlns="http://www.w3.org/2000/svg"
   xmlns:sodipodi="http://sodipodi.sourceforge.net/DTD/sodipodi-0.dtd"
   xmlns:inkscape="http://www.inkscape.org/namespaces/inkscape"
   width="100"
   height="100"
   id="svg2"
   version="1.1"
   inkscape:version="0.48.4 r9939"
   sodipodi:docname="Unnamed document 11">
  <defs
     id="defs4" />
  <sodipodi:namedview
     id="base"
     pagecolor="#ffffff"
     bordercolor="#666666"
     borderopacity="1.0"
     inkscape:pageopacity="0.0"
     inkscape:pageshadow="2"
     inkscape:zoom="1.4"
     inkscape:cx="172.59824"
     inkscape:cy="23.848753"
     inkscape:document-units="px"
     inkscape:current-layer="g3965"
     showgrid="false"
     showguides="true"
     inkscape:guide-bbox="true"
     inkscape:window-width="1280"
     inkscape:window-height="664"
     inkscape:window-x="0"
     inkscape:window-y="34"
     inkscape:window-maximized="1" />
  <metadata
     id="metadata7">
    <rdf:RDF>
      <cc:Work
         rdf:about="">
        <dc:format>image/svg+xml</dc:format>
        <dc:type
           rdf:resource="http://purl.org/dc/dcmitype/StillImage" />
        <dc:title></dc:title>
      </cc:Work>
    </rdf:RDF>
  </metadata>
  <g
     inkscape:label="Layer 1"
     inkscape:groupmode="layer"
     id="layer1"
     transform="translate(0,-952.36218)">
    <g
       id="g3783"
       transform="translate(4.7912946,-3.6028531)">
      <g
         id="g3929"
         transform="translate(-2.0672382,-4.6628534)">
        <g
           id="g3961"
           transform="matrix(1.0951627,0,0,1.1344039,-2.5454656,-134.8456)">
          <path
             sodipodi:nodetypes="ccccccccccc"
             inkscape:connector-curvature="0"
             id="path3007"
             d="m 11.796875,987.78217 16.757812,0 c 1.497238,0.11215 1.386342,2.36758 0,3.32031 -2.082385,1.42234 -8.30795,1.16858 -12.812499,0 l 0,8.59375 c 3.854166,-0.8384 7.708333,-0.58005 11.562499,0 1.382066,0.84757 1.968739,1.41197 -0.401786,2.96317 -4.068571,1.2864 -7.422393,1.0522 -11.160713,0.3571 l 0,13.9258 c -0.462217,7.8594 -1.830968,5.2962 -3.945313,5.6999 3.383174,-19.8519 1.944539,-32.93203 -8.1696429,-40.93146"
             style="font-size:40px;font-style:normal;font-weight:normal;line-height:125%;letter-spacing:0px;word-spacing:0px;fill:#000000;fill-opacity:1;stroke:none;font-family:Sans"
             transform="translate(0,-3.5e-6)" />
          <path
             transform="matrix(0.58573234,0,0,0.60290942,13.534446,978.63256)"
             d="m 3.2142859,68.39286 c 0,3.649025 -3.67766109,6.607143 -8.2142859,6.607143 -4.5366248,0 -8.214286,-2.958118 -8.214286,-6.607143 0,-3.649024 3.6776612,-6.607143 8.214286,-6.607143 4.53662481,0 8.2142859,2.958119 8.2142859,6.607143 z"
             sodipodi:ry="6.6071429"
             sodipodi:rx="8.2142859"
             sodipodi:cy="68.39286"
             sodipodi:cx="-5"
             id="path3013"
             style="fill:#000000;fill-rule:evenodd;stroke:#000000;stroke-width:1px;stroke-linecap:butt;stroke-linejoin:miter;stroke-opacity:1"
             sodipodi:type="arc" />
        </g>
        <g
           id="g3965">
          <g
             id="g3971">
            <g
               style="font-size:40px;font-style:normal;font-weight:normal;line-height:125%;letter-spacing:0px;word-spacing:0px;fill:#000000;fill-opacity:1;stroke:none;font-family:Sans"
               id="text2985"
               transform="matrix(1.0686228,0,0,1.0686228,-2.3584473,-70.792322)">
              <path
                 sodipodi:nodetypes="ccccccccccccscc"
                 inkscape:connector-curvature="0"
                 d="m 35.111607,985.19288 c 4.760052,3.26766 3.001163,0.87499 5.611049,2.58929 l 7.693944,24.26313 8.364353,-24.13686 c 4.263657,0.70752 3.147229,3.66586 3.812644,2.78318 -0.72492,14.94228 -1.837731,26.92088 -0.677306,31.96498 l -3.13337,1.25 0,-27.12069 c -3.572836,9.17779 -9.293275,16.73489 -11.121597,34.82859 -1.295683,-4.7458 1.196574,-12.5664 -0.555531,-17.8118 -0.02981,-8.7575 -4.245742,-15.00335 -6.433917,-22.46585 -0.0189,8.28632 -4.094238,-21.4205 -1.428571,22.21255 -0.192758,0.833 -0.282764,3.358 -0.0042,4.1486 2.474908,7.0246 -0.646657,8.9333 -2.395355,9.644 -1.063747,-8.5649 -0.0419,-28.25293 0.178571,-43.66697"
                 id="path3009" />
            </g>
            <path
               sodipodi:type="arc"
               style="fill:#000000;fill-rule:evenodd;stroke:#000000;stroke-width:1px;stroke-linecap:butt;stroke-linejoin:miter;stroke-opacity:1"
               id="path3013-3"
               sodipodi:cx="-5"
               sodipodi:cy="68.39286"
               sodipodi:rx="8.2142859"
               sodipodi:ry="6.6071429"
               d="m 3.2142859,68.39286 c 0,3.649025 -3.67766109,6.607143 -8.2142859,6.607143 -4.5366248,0 -8.214286,-2.958118 -8.214286,-6.607143 0,-3.649024 3.6776612,-6.607143 8.214286,-6.607143 4.53662481,0 8.2142859,2.958119 8.2142859,6.607143 z"
               transform="matrix(0.58573234,0,0,0.60290942,35.99451,982.0875)" />
            <path
               sodipodi:type="arc"
               style="fill:#000000;fill-rule:evenodd;stroke:#000000;stroke-width:1px;stroke-linecap:butt;stroke-linejoin:miter;stroke-opacity:1"
               id="path3013-3-8"
               sodipodi:cx="-5"
               sodipodi:cy="68.39286"
               sodipodi:rx="8.2142859"
               sodipodi:ry="6.6071429"
               d="m 3.2142859,68.39286 a 8.2142859,6.6071429 0 1 1 -16.4285719,0 8.2142859,6.6071429 0 1 1 16.4285719,0 z"
               transform="matrix(0.58573234,0,0,0.60290942,59.180108,981.87319)" />
          </g>
        </g>
        <g
           transform="matrix(1.0002517,0,0,0.93624401,0.67823574,64.023633)"
           id="g3924">
          <g
             transform="translate(0,3.1e-6)"
             style="font-size:40px;font-style:normal;font-variant:normal;font-weight:normal;font-stretch:normal;line-height:125%;letter-spacing:0px;word-spacing:0px;fill:#000000;fill-opacity:1;stroke:none;font-family:FreeSans;-inkscape-font-specification:FreeSans"
             id="text3915">
            <path
               d="m 90.22371,996.98458 c -2.5e-5,2.48002 -0.760024,4.48002 -2.28,6.00002 -1.493354,1.4933 -3.453352,2.24 -5.88,2.24 l -9.16,0 0,12.36 c -0.04052,30.4801 -2.333023,27.7787 -3.72,0 0.339239,-14.4561 0.154888,-27.2541 -1.515229,-35.3472 3.593448,3.07985 6.726329,6.66632 13.555229,6.18718 2.879982,3e-5 5.093313,0.7467 6.64,2.24 1.57331,1.46669 2.359975,3.57336 2.36,6.32 m -17.32,4.96002 7.76,0 c 1.78665,0 3.173315,-0.4533 4.16,-1.36 1.013313,-0.9067 1.519979,-2.16 1.52,-3.76002 -2.1e-5,-1.59998 -0.506687,-2.85331 -1.52,-3.76 -0.986685,-0.90664 -2.37335,-1.35997 -4.16,-1.36 l -7.76,0 0,10.24002"
               id="path3920"
               inkscape:connector-curvature="0"
               sodipodi:nodetypes="cssccccccccccccccc" />
          </g>
          <path
             transform="matrix(0.58573234,0,0,0.60290942,70.012368,996.42676)"
             d="m 3.2142859,68.39286 c 0,3.649025 -3.67766109,6.607143 -8.2142859,6.607143 -4.5366248,0 -8.214286,-2.958118 -8.214286,-6.607143 0,-3.649024 3.6776612,-6.607143 8.214286,-6.607143 4.53662481,0 8.2142859,2.958119 8.2142859,6.607143 z"
             sodipodi:ry="6.6071429"
             sodipodi:rx="8.2142859"
             sodipodi:cy="68.39286"
             sodipodi:cx="-5"
             id="path3013-3-8-9"
             style="fill:#000000;fill-rule:evenodd;stroke:#000000;stroke-width:1px;stroke-linecap:butt;stroke-linejoin:miter;stroke-opacity:1"
             sodipodi:type="arc" />
        </g>
      </g>
    </g>
  </g>
</svg>
