/* XPM */
static char *star_hover_png[] = {
/* columns rows colors chars-per-pixel */
"62 63 145 2",
"   c gray21",
".  c gray23",
"X  c #423F37",
"o  c #4F4A37",
"O  c #68563C",
"+  c #6B6438",
"@  c #7F7639",
"#  c gray26",
"$  c gray27",
"%  c #4A4949",
"&  c #515151",
"*  c #565555",
"=  c #585858",
"-  c gray36",
";  c #5F5E5D",
":  c #746040",
">  c #606060",
",  c #676767",
"<  c gray43",
"1  c #767676",
"2  c gray49",
"3  c #816742",
"4  c #8D7045",
"5  c #81715F",
"6  c #997E5B",
"7  c #9A873C",
"8  c #9A9239",
"9  c #B4A53B",
"0  c #C9B73C",
"q  c #D4C939",
"w  c #E5D43C",
"e  c #FFE33F",
"r  c #FFE73F",
"t  c #FFEA3D",
"y  c #FFEE3C",
"u  c #FFF13A",
"i  c #FFF539",
"p  c #B09268",
"a  c #C99F47",
"s  c #D3AD44",
"d  c #C0A176",
"f  c #CCA97B",
"g  c #D9B07B",
"h  c #E5C441",
"j  c #F2CE42",
"k  c #FFCD47",
"l  c #FFC24B",
"z  c #FFC34B",
"x  c #FFC54A",
"c  c #FFC74A",
"v  c #FFC949",
"b  c #FFCC48",
"n  c #FFD047",
"m  c #FFD246",
"M  c #FFD445",
"N  c #FFD843",
"B  c #FFDA43",
"V  c #FFDF41",
"C  c #FFDC42",
"Z  c #FFC250",
"A  c #FFC765",
"S  c #FFC96C",
"D  c #FFC970",
"F  c #FFCA73",
"G  c #FFCD79",
"H  c #FFCD7F",
"J  c #838282",
"K  c gray55",
"L  c gray57",
"P  c gray59",
"I  c #999898",
"U  c #9B9B9B",
"Y  c #A2A2A2",
"T  c #A5A5A4",
"R  c gray66",
"E  c #ACACAC",
"W  c #BFB3A4",
"Q  c #B2B2B2",
"!  c #B6B6B6",
"~  c #BCB7B1",
"^  c gray73",
"/  c gray75",
"(  c #E3BC84",
")  c #C3B6A4",
"_  c #F2C285",
"`  c #FFCF85",
"'  c #FFCD8B",
"]  c #FFD08B",
"[  c #FFD18D",
"{  c #FFD392",
"}  c #FFD497",
"|  c #F7D09A",
" . c #FFD69C",
".. c #FFD79F",
"X. c #D5CABC",
"o. c #EACCA3",
"O. c #F8D3A0",
"+. c #F8D5A5",
"@. c #FFD8A1",
"#. c #FFD8A3",
"$. c #FFD9A5",
"%. c #F2D1AA",
"&. c #FFDAA9",
"*. c #FFD9AB",
"=. c #F9D8AC",
"-. c #FFDCAD",
";. c #FFDCAE",
":. c #FFDDB1",
">. c #FFDCB2",
",. c #FFDDB5",
"<. c #FFDFB4",
"1. c #FFDFB7",
"2. c #F2DBBF",
"3. c #FFE1BA",
"4. c #FFE2BE",
"5. c gray76",
"6. c gray77",
"7. c gray79",
"8. c #CECECE",
"9. c gray81",
"0. c #D0D0D0",
"q. c LightGray",
"w. c gray83",
"e. c #D7D7D7",
"r. c gray86",
"t. c gainsboro",
"y. c #DFDFDF",
"u. c #EADDCD",
"i. c #FFE3C0",
"p. c #FFE4C2",
"a. c #FFE5C5",
"s. c #FFE6C6",
"d. c #FFE7C9",
"f. c #FFE7CB",
"g. c #FFE8CD",
"h. c #FFE9CE",
"j. c #FBE9D2",
"k. c #FFEAD0",
"l. c #FFEBD2",
"z. c #E1E1E1",
"x. c #E4E4E4",
"c. c #E6E6E6",
"v. c gray91",
"b. c #EAEAEA",
"n. c None",
/* pixels */
"n.n.n.n.n.n.n.n.n.n.n.n.n.n.n.n.n.n.n.n.n.n.n.n.n.n.n.n.n.n.r.    7.n.n.n.n.n.n.n.n.n.n.n.n.n.n.n.n.n.n.n.n.n.n.n.n.n.n.n.n.",
"n.n.n.n.n.n.n.n.n.n.n.n.n.n.n.n.n.n.n.n.n.n.n.n.n.n.n.n.n.n.P % ~ $ n.n.n.n.n.n.n.n.n.n.n.n.n.n.n.n.n.n.n.n.n.n.n.n.n.n.n.n.",
"n.n.n.n.n.n.n.n.n.n.n.n.n.n.n.n.n.n.n.n.n.n.n.n.n.n.n.n.n.r.  j.l.  9.n.n.n.n.n.n.n.n.n.n.n.n.n.n.n.n.n.n.n.n.n.n.n.n.n.n.n.",
"n.n.n.n.n.n.n.n.n.n.n.n.n.n.n.n.n.n.n.n.n.n.n.n.n.n.n.n.n.= < l.l.u.  x.n.n.n.n.n.n.n.n.n.n.n.n.n.n.n.n.n.n.n.n.n.n.n.n.n.n.",
"n.n.n.n.n.n.n.n.n.n.n.n.n.n.n.n.n.n.n.n.n.n.n.n.n.n.n.n.9.  l.l.l.l.  5.n.n.n.n.n.n.n.n.n.n.n.n.n.n.n.n.n.n.n.n.n.n.n.n.n.n.",
"n.n.n.n.n.n.n.n.n.n.n.n.n.n.n.n.n.n.n.n.n.n.n.n.n.n.n.n.> ; l.l.l.l.X.  n.n.n.n.n.n.n.n.n.n.n.n.n.n.n.n.n.n.n.n.n.n.n.n.n.n.",
"n.n.n.n.n.n.n.n.n.n.n.n.n.n.n.n.n.n.n.n.n.n.n.n.n.n.n.x.  l.k.k.k.k.k.  r.n.n.n.n.n.n.n.n.n.n.n.n.n.n.n.n.n.n.n.n.n.n.n.n.n.",
"n.n.n.n.n.n.n.n.n.n.n.n.n.n.n.n.n.n.n.n.n.n.n.n.n.n.n.5.# k.k.k.k.k.k.W P n.n.n.n.n.n.n.n.n.n.n.n.n.n.n.n.n.n.n.n.n.n.n.n.n.",
"n.n.n.n.n.n.n.n.n.n.n.n.n.n.n.n.n.n.n.n.n.n.n.n.n.n.x.  k.h.h.h.h.h.h.h.  r.n.n.n.n.n.n.n.n.n.n.n.n.n.n.n.n.n.n.n.n.n.n.n.n.",
"n.n.n.n.n.n.n.n.n.n.n.n.n.n.n.n.n.n.n.n.n.n.n.n.n.n.5.  h.h.h.h.h.h.h.h.  P n.n.n.n.n.n.n.n.n.n.n.n.n.n.n.n.n.n.n.n.n.n.n.n.",
"n.n.n.n.n.n.n.n.n.n.n.n.n.n.n.n.n.n.n.n.n.n.n.n.n.x.. 5 g.g.g.g.g.g.g.g.2.  r.n.n.n.n.n.n.n.n.n.n.n.n.n.n.n.n.n.n.n.n.n.n.n.",
"n.n.n.n.n.n.n.n.n.n.n.n.n.n.n.n.n.n.n.n.n.n.n.n.n.5.  f.f.f.f.f.f.f.f.f.f.  P n.n.n.n.n.n.n.n.n.n.n.n.n.n.n.n.n.n.n.n.n.n.n.",
"n.n.n.n.n.n.n.n.n.n.n.n.n.n.n.n.n.n.n.n.n.n.n.n.x.. : d.d.d.d.d.d.d.d.d.d.%.  r.n.n.n.n.n.n.n.n.n.n.n.n.n.n.n.n.n.n.n.n.n.n.",
"n.n.n.n.n.n.n.n.n.n.n.n.n.n.n.n.n.n.n.n.n.n.n.n.5.  s.s.s.s.s.s.s.s.s.s.s.s.  T n.n.n.n.n.n.n.n.n.n.n.n.n.n.n.n.n.n.n.n.n.n.",
"n.n.n.n.n.n.n.n.n.n.n.n.n.n.n.n.n.n.n.n.n.n.n.n.. O a.a.a.a.a.a.a.a.a.a.a.a._   n.n.n.n.n.n.n.n.n.n.n.n.n.n.n.n.n.n.n.n.n.n.",
"n.n.n.n.n.n.n.n.n.n.n.n.n.n.n.n.n.n.n.n.n.n.n.t.  p.p.p.p.p.p.p.p.p.p.p.p.p.a.  9.n.n.n.n.n.n.n.n.n.n.n.n.n.n.n.n.n.n.n.n.n.",
"n.n.n.n.n.n.n.n.n.n.n.n.n.n.n.n.n.n.n.n.n.n.n.J a i.i.i.i.i.i.i.i.i.i.i.i.i.i.#.  x.n.n.n.n.n.n.n.n.n.n.n.n.n.n.n.n.n.n.n.n.",
"n.n.n.n.n.n.n.n.n.n.n.n.n.n.n.n.n.n.n.n.n.n.0.  4.4.4.4.4.4.4.4.4.4.4.4.4.4.4.4.  / v.n.n.n.n.n.n.n.n.n.n.n.n.n.n.n.n.n.n.n.",
"n.n.n.n.n.n.n.n.n.n.n.n.n.n.n.n.x.r.8.J %       3.3.3.3.3.3.3.3.3.3.3.3.3.3.3.3.3       2 8.r.x.n.n.n.n.n.n.n.n.n.n.n.n.n.n.",
"n.n.n.n.n.n.n.n.n.n.z.r.8.,           X 6 *.1.1.1.1.1.1.1.1.1.1.1.1.1.1.1.1.1.1.1.1.1.p O           = E e.y.v.n.n.n.n.n.n.n.",
"n.n.n.b.y.e.Y =           : f ;.<.<.<.<.<.<.<.<.<.<.<.<.<.<.<.<.<.<.<.<.<.<.<.<.<.<.<.<.<.<.<.,.<.( 4           % J q.r.c.n.",
"n.n.&         4 g >.:.:.:.:.:.:.:.:.:.:.:.:.:.:.:.:.:.:.:.:.:.:.:.:.:.:.:.:.:.:.:.:.:.:.:.:.:.:.:.:.:.:.:.:.:.' 6 X         ",
"n.n.^   ) -.-.-.-.-.-.-.-.-.-.-.-.-.-.-.-.-.-.-.-.-.-.-.-.-.-.-.-.-.-.-.-.-.-.-.-.-.-.-.-.-.-.-.-.-.-.-.-.-.-.-.-.-.-.=.  U ",
"n.n.z.T   W &.&.&.&.&.&.&.&.&.&.&.&.&.&.&.&.&.&.&.&.&.&.&.&.&.&.&.&.&.&.&.&.&.&.&.&.&.&.&.&.&.&.&.&.&.&.&.&.&.&.&.&.o.  L 0.",
"n.n.n.y.T   +.$.$.$.$.$.$.$.$.$.$.$.$.$.$.$.$.$.$.$.$.$.$.$.$.$.$.$.$.$.$.$.$.$.$.$.$.$.$.$.$.$.$.$.$.$.$.$.$.$.$.$.  Y r.n.",
"n.n.n.n.y.T   O.@.@.@.@.@.@.@.@.@.@.@.@.@.@.@.@.@.@.@.@.@.@.@.@.@.@.@.@.@.@.@.@.@.@.@.@.@.@.@.@.@.@.@.@.@.@.@.@.@.. T y.n.n.",
"n.n.n.n.n.y.K   |  . . . . . . . . . . . . . . . . . . . . . . . . . . . . . . . . . . . . . . . . . . . . . ...  = y.n.n.n.",
"n.n.n.n.n.n.8.K   } } } } } } } } } } } } } } } } } } } } } } } } } } } } } } } } } } } } } } } } } } } } } }   < 8.n.n.n.n.",
"n.n.n.n.n.n.n.w.Y   { { { { { { { { { { { { { { { { { { { { { { { { { { { { { { { { { { { { { { { { { { { { # < 8.n.n.n.n.n.",
"n.n.n.n.n.n.n.n.n.T   ( ] ] ] ] ] ] ] ] ] ] ] ] ] ] ] ] ] ] ] ] ] ] ] ] ] ] ] ] ] ] ] ] ] ] ] ] ] ] ] ] [   < y.n.n.n.n.n.n.",
"n.n.n.n.n.n.n.n.n.y.T   d ` ` ` ` ` ` ` ` ` ` ` ` ` ` ` ` ` ` ` ` ` ` ` ` ` ` ` ` ` ` ` ` ` ` ` ` ` ` `   2 8.n.n.n.n.n.n.n.",
"n.n.n.n.n.n.n.n.n.n.y.T   H H H H H H H H H H H H H H H H H H H H H H H H H H H H H H H H H H H H H H   2 8.n.n.n.n.n.n.n.n.",
"n.n.n.n.n.n.n.n.n.n.n.y.T   G G G G G G G G G G G G G G G G G G G G G G G G G G G G G G G G G G G G   2 8.n.n.n.n.n.n.n.n.n.",
"n.n.n.n.n.n.n.n.n.n.n.n.y.<   D F F F F F F F F F F F F F F F F F F F F F F F F F F F F F F F F F   # 8.n.n.n.n.n.n.n.n.n.n.",
"n.n.n.n.n.n.n.n.n.n.n.n.n.8.2   S S S S S S S S S S S S S S S S S S S S S S S S S S S S S S S S   $ ^ n.n.n.n.n.n.n.n.n.n.n.",
"n.n.n.n.n.n.n.n.n.n.n.n.n.n.8.2   A A A A A A A A A A A A A A A A A A A A A A A A A A A A A A   # ^ n.n.n.n.n.n.n.n.n.n.n.n.",
"n.n.n.n.n.n.n.n.n.n.n.n.n.n.n.8.2   Z Z Z Z Z Z Z Z Z Z Z Z Z Z Z Z Z Z Z Z Z Z Z Z Z Z Z Z X * / n.n.n.n.n.n.n.n.n.n.n.n.n.",
"n.n.n.n.n.n.n.n.n.n.n.n.n.n.n.n./   l l l l l l l l l l l l l l l l l l l l l l l l l l l l   Q n.n.n.n.n.n.n.n.n.n.n.n.n.n.",
"n.n.n.n.n.n.n.n.n.n.n.n.n.n.n.n.7.  z z z z z z z z z z z z z z z z z z z z z z z z z z z z 3 ! n.n.n.n.n.n.n.n.n.n.n.n.n.n.",
"n.n.n.n.n.n.n.n.n.n.n.n.n.n.n.n.^ 4 x x x x x x x x x x x x x x x x x x x x x x x x x x x x z < n.n.n.n.n.n.n.n.n.n.n.n.n.n.",
"n.n.n.n.n.n.n.n.n.n.n.n.n.n.n.n.K c c c c c c c c c c c c c c c c c c c c c c c c c c c c c c   v.n.n.n.n.n.n.n.n.n.n.n.n.n.",
"n.n.n.n.n.n.n.n.n.n.n.n.n.n.n.n.& v v v v v v v v v v v v v v v v v v v v v v v v v v v v v v   y.n.n.n.n.n.n.n.n.n.n.n.n.n.",
"n.n.n.n.n.n.n.n.n.n.n.n.n.n.n.y.  b b b b b b b b b b b b b b b b b b b b b b b b b b b b b b   8.n.n.n.n.n.n.n.n.n.n.n.n.n.",
"n.n.n.n.n.n.n.n.n.n.n.n.n.n.n.q.  k k k k k k k k k k k k k k k k k k k k k k k k k k k k k k   / n.n.n.n.n.n.n.n.n.n.n.n.n.",
"n.n.n.n.n.n.n.n.n.n.n.n.n.n.n.6.  n n n n n n n n n n n n n n n n n n n n n n n n n n n n n n   L n.n.n.n.n.n.n.n.n.n.n.n.n.",
"n.n.n.n.n.n.n.n.n.n.n.n.n.n.n.!   m m m m m m m m m m m m m m m m m m m m m m m m m m m m m m @ & n.n.n.n.n.n.n.n.n.n.n.n.n.",
"n.n.n.n.n.n.n.n.n.n.n.n.n.n.n.< O M M M M M M M M M M M M M M M M M M M M M M M M M M M M M M h   x.n.n.n.n.n.n.n.n.n.n.n.n.",
"n.n.n.n.n.n.n.n.n.n.n.n.n.n.v.  s N N N N N N N N N N N N N N j j N N N N N N N N N N N N N N N   e.n.n.n.n.n.n.n.n.n.n.n.n.",
"n.n.n.n.n.n.n.n.n.n.n.n.n.n.t.  B B B B B B B B B B B B B C         B B B B B B B B B B B B B C   7.n.n.n.n.n.n.n.n.n.n.n.n.",
"n.n.n.n.n.n.n.n.n.n.n.n.n.n.8.  C C C C C C C C C C C C X   & T E 1     C C C C C C C C C C C C   ^ n.n.n.n.n.n.n.n.n.n.n.n.",
"n.n.n.n.n.n.n.n.n.n.n.n.n.n./   V V V V V V V V V V 0   $ R 9.n.n.r.! >   @ V V V V V V V V V V   K n.n.n.n.n.n.n.n.n.n.n.n.",
"n.n.n.n.n.n.n.n.n.n.n.n.n.n.Y   e e e e e e e e w     I 9.n.n.n.n.n.n.w.U     7 e e e e e e e e 7 & n.n.n.n.n.n.n.n.n.n.n.n.",
"n.n.n.n.n.n.n.n.n.n.n.n.n.n.> + r r r r r r t X   J ! y.n.n.n.n.n.n.n.n.x.5.U     r r r r r r r r   z.n.n.n.n.n.n.n.n.n.n.n.",
"n.n.n.n.n.n.n.n.n.n.n.n.n.x.  0 t t t t t o   % ! r.n.n.n.n.n.n.n.n.n.n.n.n.x.5.<     t t t t t t   e.n.n.n.n.n.n.n.n.n.n.n.",
"n.n.n.n.n.n.n.n.n.n.n.n.n.r.  y y y y q   # R 9.n.n.n.n.n.n.n.n.n.n.n.n.n.n.n.n.e.E -   8 y y y y   7.n.n.n.n.n.n.n.n.n.n.n.",
"n.n.n.n.n.n.n.n.n.n.n.n.n.7.  i u X   & R y.n.n.n.n.n.n.n.n.n.n.n.n.n.n.n.n.n.n.n.n.x.! 1     u u   ! n.n.n.n.n.n.n.n.n.n.n.",
"n.n.n.n.n.n.n.n.n.n.n.n.n.^   9   % R 9.n.n.n.n.n.n.n.n.n.n.n.n.n.n.n.n.n.n.n.n.n.n.n.n.r.! <   + + < n.n.n.n.n.n.n.n.n.n.n.",
"n.n.n.n.n.n.n.n.n.n.n.n.n.J     U 9.n.n.n.n.n.n.n.n.n.n.n.n.n.n.n.n.n.n.n.n.n.n.n.n.n.n.n.n.e.U .     n.n.n.n.n.n.n.n.n.n.n.",
"n.n.n.n.n.n.n.n.n.n.n.n.n./ P / x.n.n.n.n.n.n.n.n.n.n.n.n.n.n.n.n.n.n.n.n.n.n.n.n.n.n.n.n.n.n.x.5.Y L n.n.n.n.n.n.n.n.n.n.n.",
"n.n.n.n.n.n.n.n.n.n.n.n.n.n.c.n.n.n.n.n.n.n.n.n.n.n.n.n.n.n.n.n.n.n.n.n.n.n.n.n.n.n.n.n.n.n.n.n.n.b.v.n.n.n.n.n.n.n.n.n.n.n.",
"n.n.n.n.n.n.n.n.n.n.n.n.n.n.n.n.n.n.n.n.n.n.n.n.n.n.n.n.n.n.n.n.n.n.n.n.n.n.n.n.n.n.n.n.n.n.n.n.n.n.n.n.n.n.n.n.n.n.n.n.n.n.",
"n.n.n.n.n.n.n.n.n.n.n.n.n.n.n.n.n.n.n.n.n.n.n.n.n.n.n.n.n.n.n.n.n.n.n.n.n.n.n.n.n.n.n.n.n.n.n.n.n.n.n.n.n.n.n.n.n.n.n.n.n.n.",
"n.n.n.n.n.n.n.n.n.n.n.n.n.n.n.n.n.n.n.n.n.n.n.n.n.n.n.n.n.n.n.n.n.n.n.n.n.n.n.n.n.n.n.n.n.n.n.n.n.n.n.n.n.n.n.n.n.n.n.n.n.n."
};
