/* XPM */
static char *star_selected_png[] = {
/* columns rows colors chars-per-pixel */
"62 63 75 1",
"  c #030A00",
". c #040D00",
"X c #050E00",
"o c #051001",
"O c #061101",
"+ c #061301",
"@ c #071401",
"# c #081801",
"$ c #091C01",
"% c #0A1D01",
"& c #0A1E01",
"* c #0B2002",
"= c #0B2202",
"- c #0C2302",
"; c #0C2402",
": c #0C2502",
"> c #0D2802",
", c #0E2A02",
"< c #0F2E02",
"1 c #113203",
"2 c #113403",
"3 c #123603",
"4 c #143D03",
"5 c #164104",
"6 c #174504",
"7 c #1A4C04",
"8 c #1A4E04",
"9 c #1B5105",
"0 c #1E5705",
"q c #1E5905",
"w c #205E05",
"e c #236606",
"r c #246A06",
"t c #256B06",
"y c #266F07",
"u c #287507",
"i c #2B7A0A",
"p c #2D7C0C",
"a c #2E7D0D",
"s c #2F7E0E",
"d c #328010",
"f c #358314",
"g c #378516",
"h c #388617",
"j c #3B881A",
"k c #3C891B",
"l c #3D8A1C",
"z c #3E8B1D",
"x c #3F8C1F",
"c c #418D20",
"v c #428E21",
"b c #438F23",
"n c #449024",
"m c #469125",
"M c #479227",
"N c #489328",
"B c #4A942A",
"V c #4B952B",
"C c #4C962C",
"Z c #4F982F",
"A c #509931",
"S c #529A32",
"D c #539B34",
"F c #549D35",
"G c #569E37",
"H c #579F39",
"J c #58A03A",
"K c #5AA13C",
"L c #5BA23D",
"P c #5DA33F",
"I c #5EA441",
"U c #60A542",
"Y c #63A746",
"T c #64A847",
"R c gray100",
/* pixels */
"RRRRRRRRRRRRRRRRRRRRRRRRRRRRRRZ  zRRRRRRRRRRRRRRRRRRRRRRRRRRRR",
"RRRRRRRRRRRRRRRRRRRRRRRRRRRRRR0@aOURRRRRRRRRRRRRRRRRRRRRRRRRRR",
"RRRRRRRRRRRRRRRRRRRRRRRRRRRRRZ UT nRRRRRRRRRRRRRRRRRRRRRRRRRRR",
"RRRRRRRRRRRRRRRRRRRRRRRRRRRRU%<TTD JRRRRRRRRRRRRRRRRRRRRRRRRRR",
"RRRRRRRRRRRRRRRRRRRRRRRRRRRRn TTTT hRRRRRRRRRRRRRRRRRRRRRRRRRR",
"RRRRRRRRRRRRRRRRRRRRRRRRRRRR-=TTTTc RRRRRRRRRRRRRRRRRRRRRRRRRR",
"RRRRRRRRRRRRRRRRRRRRRRRRRRRJ TYYYYY ZRRRRRRRRRRRRRRRRRRRRRRRRR",
"RRRRRRRRRRRRRRRRRRRRRRRRRRRhoYYYYYYp0RRRRRRRRRRRRRRRRRRRRRRRRR",
"RRRRRRRRRRRRRRRRRRRRRRRRRRJ YUUUUUUU ZRRRRRRRRRRRRRRRRRRRRRRRR",
"RRRRRRRRRRRRRRRRRRRRRRRRRRh UUUUUUUU 0RRRRRRRRRRRRRRRRRRRRRRRR",
"RRRRRRRRRRRRRRRRRRRRRRRRRJ.1UUUUUUUUS ZRRRRRRRRRRRRRRRRRRRRRRR",
"RRRRRRRRRRRRRRRRRRRRRRRRRh UUUUUUUUUU 0RRRRRRRRRRRRRRRRRRRRRRR",
"RRRRRRRRRRRRRRRRRRRRRRRRJ.;UUUUUUUUUUB ZRRRRRRRRRRRRRRRRRRRRRR",
"RRRRRRRRRRRRRRRRRRRRRRRRh IIIIIIIIIIII tRRRRRRRRRRRRRRRRRRRRRR",
"RRRRRRRRRRRRRRRRRRRRRRRR.&PPPPPPPPPPPPl URRRRRRRRRRRRRRRRRRRRR",
"RRRRRRRRRRRRRRRRRRRRRRRA PPPPPPPPPPPPPP nRRRRRRRRRRRRRRRRRRRRR",
"RRRRRRRRRRRRRRRRRRRRRRR5eLLLLLLLLLLLLLLA JRRRRRRRRRRRRRRRRRRRR",
"RRRRRRRRRRRRRRRRRRRRRUn KKKKKKKKKKKKKKKK fLRRRRRRRRRRRRRRRRRRR",
"RRRRRRRRRRRRRRRUJZv5@   JJJJJJJJJJJJJJJJ,   4vZJURRRRRRRRRRRRR",
"RRRRRRRRRUFZv>     X5DJJJJJJJJJJJJJJJJJJJJJ0&     %uVFLRRRRRRR",
"RRRIFVe%     ;uFHHHHHHHHHHHHHHHHHHHHHHHHHHHHHHHHHg1     @5MZKR",
"RR#    1pFGGGGGGGGGGGGGGGGGGGGGGGGGGGGGGGGGGGGGGGGGGGGGN5X    ",
"RRd sFFFFFFFFFFFFFFFFFFFFFFFFFFFFFFFFFFFFFFFFFFFFFFFFFFFFFFA w",
"RRFt pDDDDDDDDDDDDDDDDDDDDDDDDDDDDDDDDDDDDDDDDDDDDDDDDDDDDb 9n",
"RRRFt CSSSSSSSSSSSSSSSSSSSSSSSSSSSSSSSSSSSSSSSSSSSSSSSSSSS eZR",
"RRRRFt VAAAAAAAAAAAAAAAAAAAAAAAAAAAAAAAAAAAAAAAAAAAAAAAAA.tFRR",
"RRRRRF7 NAAAAAAAAAAAAAAAAAAAAAAAAAAAAAAAAAAAAAAAAAAAAAAA %FRRR",
"RRRRRRv7 CCCCCCCCCCCCCCCCCCCCCCCCCCCCCCCCCCCCCCCCCCCCCC <vRRRR",
"RRRRRRRNe CCCCCCCCCCCCCCCCCCCCCCCCCCCCCCCCCCCCCCCCCCCCo<vRRRRR",
"RRRRRRRRUt gBBBBBBBBBBBBBBBBBBBBBBBBBBBBBBBBBBBBBBBBV <FRRRRRR",
"RRRRRRRRRFt rNNNNNNNNNNNNNNNNNNNNNNNNNNNNNNNNNNNNNNN 4vRRRRRRR",
"RRRRRRRRRRFt MMMMMMMMMMMMMMMMMMMMMMMMMMMMMMMMMMMMMM 4vRRRRRRRR",
"RRRRRRRRRRRFt mmmmmmmmmmmmmmmmmmmmmmmmmmmmmmmmmmmm 4vRRRRRRRRR",
"RRRRRRRRRRRRF< bnnnnnnnnnnnnnnnnnnnnnnnnnnnnnnnnn ovRRRRRRRRRR",
"RRRRRRRRRRRRRv4 vvvvvvvvvvvvvvvvvvvvvvvvvvvvvvvv OdRRRRRRRRRRR",
"RRRRRRRRRRRRRRv4 vvvvvvvvvvvvvvvvvvvvvvvvvvvvvv odURRRRRRRRRRR",
"RRRRRRRRRRRRRRRv4 kkkkkkkkkkkkkkkkkkkkkkkkkkkkX$fRRRRRRRRRRRRR",
"RRRRRRRRRRRRRRRRf kkkkkkkkkkkkkkkkkkkkkkkkkkkk iRRRRRRRRRRRRRR",
"RRRRRRRRRRRRRRRRz llllllllllllllllllllllllllll,aRRRRRRRRRRRRRR",
"RRRRRRRRRRRRRRRRd1zzzzzzzzzzzzzzzzzzzzzzzzzzzzl<RRRRRRRRRRRRRR",
"RRRRRRRRRRRRRRRR7xxxxxxxxxxxxxxxxxxxxxxxxxxxxxx LRRRRRRRRRRRRR",
"RRRRRRRRRRRRRRRU#cccccccccccccccccccccccccccccc FRRRRRRRRRRRRR",
"RRRRRRRRRRRRRRRF vvvvvvvvvvvvvvvvvvvvvvvvvvvvvv vRRRRRRRRRRRRR",
"RRRRRRRRRRRRRRRM bbbbbbbbbbbbbbbbbbbbbbbbbbbbbb fRRRRRRRRRRRRR",
"RRRRRRRRRRRRRRRj nnnnnnnnnnnnnnnnnnnnnnnnnnnnnn 9RRRRRRRRRRRRR",
"RRRRRRRRRRRRRRRa MMMMMMMMMMMMMMMMMMMMMMMMMMMMMM2#RRRRRRRRRRRRR",
"RRRRRRRRRRRRRRR<&MMMMMMMMMMMMMMMMMMMMMMMMMMMMMMg JRRRRRRRRRRRR",
"RRRRRRRRRRRRRRL uBBBBBBBBBBBBBBccBBBBBBBBBBBBBBB VRRRRRRRRRRRR",
"RRRRRRRRRRRRRRA VVVVVVVVVVVVVC    VVVVVVVVVVVVVC zRRRRRRRRRRRR",
"RRRRRRRRRRRRRRv CCCCCCCCCCCCX #tu3  CCCCCCCCCCCC dRRRRRRRRRRRR",
"RRRRRRRRRRRRRRf ZZZZZZZZZZi OynURZa- 2ZZZZZZZZZZ 7RRRRRRRRRRRR",
"RRRRRRRRRRRRRRe SSSSSSSSv  qnURRRRRNw  6SSSSSSSS6#URRRRRRRRRRR",
"RRRRRRRRRRRRRR-:FFFFFFHX 5aFRRRRRRRRJhw  FFFFFFFF FRRRRRRRRRRR",
"RRRRRRRRRRRRRJ iHHHHH+ @aZRRRRRRRRRRRRJh<  HHHHHH VRRRRRRRRRRR",
"RRRRRRRRRRRRRZ KKKKg oynRRRRRRRRRRRRRRRRVu* 8KKKK zRRRRRRRRRRR",
"RRRRRRRRRRRRRz ULX #yFRRRRRRRRRRRRRRRRRRRRJa3  LL aRRRRRRRRRRR",
"RRRRRRRRRRRRRd e @ynURRRRRRRRRRRRRRRRRRRRRRRZa< ::<RRRRRRRRRRR",
"RRRRRRRRRRRRR5  wnURRRRRRRRRRRRRRRRRRRRRRRRRRRVw.  RRRRRRRRRRR",
"RRRRRRRRRRRRRf0fJRRRRRRRRRRRRRRRRRRRRRRRRRRRRRRJhe9RRRRRRRRRRR",
"RRRRRRRRRRRRRRKRRRRRRRRRRRRRRRRRRRRRRRRRRRRRRRRRRILRRRRRRRRRRR",
"RRRRRRRRRRRRRRRRRRRRRRRRRRRRRRRRRRRRRRRRRRRRRRRRRRRRRRRRRRRRRR",
"RRRRRRRRRRRRRRRRRRRRRRRRRRRRRRRRRRRRRRRRRRRRRRRRRRRRRRRRRRRRRR",
"RRRRRRRRRRRRRRRRRRRRRRRRRRRRRRRRRRRRRRRRRRRRRRRRRRRRRRRRRRRRRR"
};
